# File created by Blade
# Date/Time:  Tue Apr 07 20:40:51 2015
#---------------------------------------------------------
:version 1.10
:name HOM
:units
  mass 1.0
  length 1.000000
  angle deg
:documentation
     Acclaim Skeleton File
:root
   axis xyz
   order TX TY TZ RX RY RZ
   position 0.000000 0.000000 0.000000
   orientation 0 0 0
:bonedata
   begin
      id 1
      name Spine_dum
      direction 0.000000 1.000000 0.000000
      length 4.885285
      axis 0.0 0.0 0.0 xyz
   end
   begin
      id 2
      name LeftUpLeg_dum
      direction 1.000000 0.000000 0.000000
      length 2.672193
      axis 0.0 0.0 0.0 xyz
   end
   begin
      id 3
      name RightUpLeg_dum
      direction -1.000000 0.000000 0.000000
      length 2.672193
      axis 0.0 0.0 0.0 xyz
   end
   begin
      id 4
      name Spine
      direction 0.000000 1.000000 0.000000
      length 0.000000
      axis 0.0 0.0 0.0 xyz
      dof rx ry rz
   end
   begin
      id 5
      name Spine_dum1
      direction 0.000000 1.000000 0.000000
      length 16.494159
      axis 0.0 0.0 0.0 xyz
   end
   begin
      id 6
      name Spine_dum2
      direction 0.000000 1.000000 0.000000
      length 10.663448
      axis 0.0 0.0 0.0 xyz
   end
   begin
      id 7
      name Spine_dum3
      direction 0.000000 1.000000 0.000000
      length 10.663448
      axis 0.0 0.0 0.0 xyz
   end
   begin
      id 8
      name Head
      direction 0.000000 1.000000 0.000000
      length 4.527550
      axis 0.0 0.0 0.0 xyz
      dof rx ry rz
   end
   begin
      id 9
      name LeftShoulder
      direction 1.000000 0.000000 0.000000
      length 7.531907
      axis 0.0 0.0 -90.0 xyz
      dof rx ry rz
   end
   begin
      id 10
      name LeftArm
      direction 1.000000 0.000000 0.000000
      length 10.229199
      axis 0.0 0.0 -90.0 xyz
      dof rx ry rz
   end
   begin
      id 11
      name LeftForeArm
      direction 1.000000 0.000000 0.000000
      length 8.673495
      axis 0.0 0.0 -90.0 xyz
      dof ry rz rx
   end
   begin
      id 12
      name LeftHand
      direction 0.000000 0.000000 0.000000
      length 0.000000
      axis 0.0 0.0 -90.0 xyz
      dof rx ry rz
   end
   begin
      id 13
      name LeftHand_dum1
      direction 0.000000 0.000000 0.000000
      length 0.000000
      axis 0.0 0.0 -90.0 xyz
   end
   begin
      id 14
      name LeftHand_dum2
      direction 1.000000 0.000000 0.000000
      length 3.937000
      axis 0.0 0.0 -90.0 xyz
   end
   begin
      id 15
      name LeftHandThumb1
      direction 0.000000 0.000000 1.000000
      length 3.937000
      axis 0.0 0.0 -90.0 xyz
      dof rx rz ry
   end
   begin
      id 16
      name RightShoulder
      direction -1.000000 0.000000 0.000000
      length 7.531907
      axis 0.0 0.0 90.0 xyz
      dof rx ry rz
   end
   begin
      id 17
      name RightArm
      direction -1.000000 0.000000 0.000000
      length 10.229199
      axis 0.0 0.0 90.0 xyz
      dof rx ry rz
   end
   begin
      id 18
      name RightForeArm
      direction -1.000000 0.000000 0.000000
      length 8.673495
      axis 0.0 0.0 90.0 xyz
      dof ry rz rx
   end
   begin
      id 19
      name RightHand
      direction 0.000000 0.000000 0.000000
      length 0.000000
      axis 0.0 0.0 90.0 xyz
      dof rx ry rz
   end
   begin
      id 20
      name RightHand_dum1
      direction 0.000000 0.000000 0.000000
      length 0.000000
      axis 0.0 0.0 90.0 xyz
   end
   begin
      id 21
      name RightHand_dum2
      direction -1.000000 0.000000 0.000000
      length 3.937000
      axis 0.0 0.0 90.0 xyz
   end
   begin
      id 22
      name RightHandThumb1
      direction 0.000000 0.000000 1.000000
      length 3.937000
      axis 0.0 0.0 90.0 xyz
      dof rx rz ry
   end
   begin
      id 23
      name LeftUpLeg
      direction 0.000000 -1.000000 0.000000
      length 16.263388
      axis 0.0 0.0 0.0 xyz
      dof rx ry rz
   end
   begin
      id 24
      name LeftLeg
      direction 0.000000 -1.000000 0.000000
      length 14.328163
      axis 0.0 0.0 0.0 xyz
      dof rx ry rz
   end
   begin
      id 25
      name LeftFoot
      direction 0.000000 -0.258819 0.965926
      length 5.031290
      axis 15.0 0.0 0.0 xyz
      dof rx ry rz
   end
   begin
      id 26
      name LeftToeBase
      direction 0.000000 0.000000 1.000000
      length 2.952750
      axis 0.0 0.0 0.0 xyz
      dof rx ry rz
   end
   begin
      id 27
      name RightUpLeg
      direction 0.000000 -1.000000 0.000000
      length 16.263388
      axis 0.0 0.0 0.0 xyz
      dof rx ry rz
   end
   begin
      id 28
      name RightLeg
      direction 0.000000 -1.000000 0.000000
      length 14.328163
      axis 0.0 0.0 0.0 xyz
      dof rx ry rz
   end
   begin
      id 29
      name RightFoot
      direction 0.000000 -0.258819 0.965926
      length 5.031290
      axis 15.0 0.0 0.0 xyz
      dof rx ry rz
   end
   begin
      id 30
      name RightToeBase
      direction 0.000000 0.000000 1.000000
      length 2.952750
      axis 0.0 0.0 0.0 xyz
      dof rx ry rz
   end
:hierarchy
   begin
      root Spine_dum LeftUpLeg_dum RightUpLeg_dum
      Spine_dum Spine
      LeftUpLeg_dum LeftUpLeg
      RightUpLeg_dum RightUpLeg
      Spine Spine_dum1 Spine_dum2 Spine_dum3
      Spine_dum1 Head
      Spine_dum2 LeftShoulder
      Spine_dum3 RightShoulder
      LeftShoulder LeftArm
      LeftArm LeftForeArm
      LeftForeArm LeftHand
      LeftHand LeftHand_dum1 LeftHand_dum2
      LeftHand_dum1 LeftHandThumb1
      RightShoulder RightArm
      RightArm RightForeArm
      RightForeArm RightHand
      RightHand RightHand_dum1 RightHand_dum2
      RightHand_dum1 RightHandThumb1
      LeftUpLeg LeftLeg
      LeftLeg LeftFoot
      LeftFoot LeftToeBase
      RightUpLeg RightLeg
      RightLeg RightFoot
      RightFoot RightToeBase
   end

# File created by Blade
# Date/Time:  Tue Apr 07 20:41:02 2015
# Frame Rate: 120.000 fps
#------------------------------------------------------
:FULLY-SPECIFIED
:DEGREES
1
root 1.274842 32.724626 1.525761 8.450363 3.370736 0.172922
Spine -11.929169 -7.965758 -1.173973
Head 17.837309 -0.914106 -1.699410
LeftShoulder -19.368924 40.866605 21.404910
LeftArm 54.939576 -53.121222 -52.347694
LeftForeArm 4.405292 -0.000000 -2.442248
LeftHand 5.172399 0.000000 5.315375
LeftHandThumb1 -26.253704 0.000000 33.147579
RightShoulder -6.479582 5.049560 -31.728479
RightArm 12.869649 13.962299 40.200068
RightForeArm -10.764836 -0.000000 1.066175
RightHand 4.573619 0.000000 2.215760
RightHandThumb1 -24.326973 -0.000000 -32.862282
LeftUpLeg -1.226925 -2.697731 -1.155407
LeftLeg -5.400295 -0.000000 0.000000
LeftFoot -6.414896 10.288683 -15.482472
LeftToeBase -1.988553 -0.000000 0.000000
RightUpLeg -1.245001 -2.254171 0.003252
RightLeg -4.006245 -0.000000 0.000000
RightFoot -7.812520 -7.660044 6.037025
RightToeBase 1.496866 -0.000000 -0.000000
2
root 1.274892 32.724816 1.521344 8.444596 3.363697 0.179037
Spine -11.917930 -7.980675 -1.176180
Head 17.835053 -0.939280 -1.676709
LeftShoulder -19.407289 40.856270 21.385852
LeftArm 55.004444 -53.165963 -52.404893
LeftForeArm 4.413366 -0.000000 -2.437242
LeftHand 5.191424 -0.000000 5.293862
LeftHandThumb1 -26.253704 0.000000 33.147579
RightShoulder -6.478480 5.078375 -31.744904
RightArm 12.845124 13.967892 40.182762
RightForeArm -10.789323 0.000000 1.071823
RightHand 4.696252 -0.000000 2.246956
RightHandThumb1 -24.326973 -0.000000 -32.862282
LeftUpLeg -1.224378 -2.704902 -1.165277
LeftLeg -5.409012 -0.000000 0.000000
LeftFoot -6.414124 10.325993 -15.458822
LeftToeBase -1.981943 -0.000000 0.000000
RightUpLeg -1.258189 -2.272610 -0.001626
RightLeg -3.983896 -0.000000 0.000000
RightFoot -7.821963 -7.637896 6.011994
RightToeBase 1.514862 -0.000000 -0.000000
3
root 1.271423 32.725641 1.517216 8.436712 3.363893 0.175606
Spine -11.905121 -7.983113 -1.182216
Head 17.835617 -0.989987 -1.642576
LeftShoulder -19.400897 40.817057 21.406521
LeftArm 54.952036 -53.170371 -52.342338
LeftForeArm 4.428939 0.000000 -2.427137
LeftHand 5.159133 -0.000000 5.219821
LeftHandThumb1 -26.253704 0.000000 33.147579
RightShoulder -6.489841 5.043293 -31.749502
RightArm 12.849779 14.050788 40.189879
RightForeArm -10.825634 -0.000000 1.099117
RightHand 4.665573 -0.000000 2.233376
RightHandThumb1 -24.326973 -0.000000 -32.862282
LeftUpLeg -1.230410 -2.678639 -1.156323
LeftLeg -5.396415 -0.000000 0.000000
LeftFoot -6.405425 10.293089 -15.464182
LeftToeBase -1.978519 -0.000000 0.000000
RightUpLeg -1.251757 -2.256485 0.004993
RightLeg -3.999861 -0.000000 0.000000
RightFoot -7.796704 -7.645221 6.007740
RightToeBase 1.493161 -0.000000 -0.000000
4
root 1.268538 32.726435 1.513648 8.427268 3.365970 0.165299
Spine -11.894056 -7.986862 -1.177334
Head 17.835795 -1.038707 -1.606810
LeftShoulder -19.384412 40.787438 21.431528
LeftArm 54.927993 -53.196441 -52.325229
LeftForeArm 4.488882 -0.000000 -2.425352
LeftHand 5.145479 -0.000000 5.304944
LeftHandThumb1 -26.253704 0.000000 33.147579
RightShoulder -6.499859 5.076545 -31.763610
RightArm 12.817532 14.043815 40.176473
RightForeArm -10.837331 -0.000000 1.097134
RightHand 4.631657 0.000000 2.237242
RightHandThumb1 -24.326973 -0.000000 -32.862282
LeftUpLeg -1.229031 -2.666494 -1.142167
LeftLeg -5.394622 -0.000000 0.000000
LeftFoot -6.397355 10.282430 -15.468066
LeftToeBase -1.999105 -0.000000 0.000000
RightUpLeg -1.249721 -2.249903 0.019344
RightLeg -3.999945 -0.000000 0.000000
RightFoot -7.788762 -7.655899 6.023905
RightToeBase 1.514183 -0.000000 -0.000000
5
root 1.265806 32.726955 1.509046 8.425076 3.356277 0.165025
Spine -11.883833 -7.999707 -1.183027
Head 17.822836 -1.066759 -1.572364
LeftShoulder -19.435391 40.807615 21.406486
LeftArm 55.005277 -53.237239 -52.375903
LeftForeArm 4.537007 -0.000000 -2.417188
LeftHand 5.108438 0.000000 5.328652
LeftHandThumb1 -26.253704 0.000000 33.147579
RightShoulder -6.502943 5.074724 -31.766617
RightArm 12.817391 14.044266 40.159941
RightForeArm -10.817432 0.000000 1.095619
RightHand 4.666750 -0.000000 2.194514
RightHandThumb1 -24.326973 -0.000000 -32.862282
LeftUpLeg -1.235632 -2.662212 -1.136957
LeftLeg -5.393196 -0.000000 0.000000
LeftFoot -6.396691 10.280912 -15.478780
LeftToeBase -1.959611 -0.000000 0.000000
RightUpLeg -1.264320 -2.252914 0.024170
RightLeg -3.987225 -0.000000 0.000000
RightFoot -7.782870 -7.648132 6.028163
RightToeBase 1.471171 -0.000000 -0.000000
6
root 1.263277 32.727585 1.505164 8.424843 3.350696 0.171926
Spine -11.880434 -7.998703 -1.197228
Head 17.809757 -1.100998 -1.532514
LeftShoulder -19.437921 40.802559 21.425096
LeftArm 54.991859 -53.243556 -52.356859
LeftForeArm 4.527447 0.000000 -2.386557
LeftHand 5.078879 -0.000000 5.216560
LeftHandThumb1 -26.253704 0.000000 33.147579
RightShoulder -6.522201 5.091889 -31.786732
RightArm 12.797985 14.043711 40.160113
RightForeArm -10.822491 -0.000000 1.084993
RightHand 4.759365 -0.000000 2.214998
RightHandThumb1 -24.326973 -0.000000 -32.862282
LeftUpLeg -1.247112 -2.640749 -1.139575
LeftLeg -5.382449 -0.000000 0.000000
LeftFoot -6.388368 10.261317 -15.484308
LeftToeBase -1.996092 -0.000000 0.000000
RightUpLeg -1.270347 -2.242245 0.020083
RightLeg -3.987883 -0.000000 0.000000
RightFoot -7.786292 -7.654697 6.012569
RightToeBase 1.528215 -0.000000 -0.000000
7
root 1.260161 32.728020 1.500906 8.422162 3.342721 0.167311
Spine -11.871322 -7.997551 -1.202263
Head 17.793828 -1.153390 -1.494997
LeftShoulder -19.453998 40.776007 21.440058
LeftArm 54.996164 -53.240019 -52.345838
LeftForeArm 4.563044 -0.000000 -2.378001
LeftHand 5.055660 -0.000000 5.322297
LeftHandThumb1 -26.253704 0.000000 33.147579
RightShoulder -6.538931 5.079960 -31.786768
RightArm 12.801565 14.039725 40.139450
RightForeArm -10.768349 0.000000 1.084033
RightHand 4.787346 -0.000000 2.246945
RightHandThumb1 -24.326973 -0.000000 -32.862282
LeftUpLeg -1.253766 -2.644507 -1.128683
LeftLeg -5.379580 -0.000000 0.000000
LeftFoot -6.391220 10.265736 -15.516255
LeftToeBase -1.936377 -0.000000 0.000000
RightUpLeg -1.283393 -2.249217 0.029535
RightLeg -3.974728 -0.000000 0.000000
RightFoot -7.781775 -7.637548 6.000507
RightToeBase 1.519190 -0.000000 -0.000000
8
root 1.256758 32.728383 1.496933 8.415385 3.338318 0.168485
Spine -11.858271 -7.998677 -1.213768
Head 17.770260 -1.181787 -1.448621
LeftShoulder -19.470427 40.786734 21.443839
LeftArm 54.998665 -53.252689 -52.322585
LeftForeArm 4.507090 -0.000000 -2.385765
LeftHand 5.097729 -0.000000 5.284923
LeftHandThumb1 -26.253704 0.000000 33.147579
RightShoulder -6.556359 5.084248 -31.799630
RightArm 12.790964 14.043143 40.141607
RightForeArm -10.783149 -0.000000 1.091015
RightHand 4.743308 0.000000 2.280982
RightHandThumb1 -24.326973 -0.000000 -32.862282
LeftUpLeg -1.256593 -2.631537 -1.125700
LeftLeg -5.374754 -0.000000 0.000000
LeftFoot -6.378479 10.258821 -15.495291
LeftToeBase -1.997219 -0.000000 0.000000
RightUpLeg -1.285889 -2.233271 0.034009
RightLeg -3.971450 -0.000000 0.000000
RightFoot -7.776131 -7.656704 5.988090
RightToeBase 1.508404 -0.000000 -0.000000
9
root 1.253839 32.729136 1.493602 8.407180 3.326388 0.172025
Spine -11.846955 -8.001249 -1.218842
Head 17.751124 -1.212414 -1.439483
LeftShoulder -19.487374 40.781093 21.428263
LeftArm 55.000025 -53.278192 -52.299229
LeftForeArm 4.503731 -0.000000 -2.390152
LeftHand 5.123602 -0.000000 5.318978
LeftHandThumb1 -26.253704 0.000000 33.147579
RightShoulder -6.554212 5.068102 -31.785528
RightArm 12.794905 14.073027 40.106130
RightForeArm -10.789298 -0.000000 1.105890
RightHand 4.484686 -0.000000 2.269763
RightHandThumb1 -24.326973 -0.000000 -32.862282
LeftUpLeg -1.251713 -2.625812 -1.125357
LeftLeg -5.379933 -0.000000 0.000000
LeftFoot -6.371157 10.263812 -15.524529
LeftToeBase -1.941779 -0.000000 0.000000
RightUpLeg -1.284969 -2.211332 0.032510
RightLeg -3.972158 -0.000000 0.000000
RightFoot -7.776900 -7.665279 6.003868
RightToeBase 1.523042 -0.000000 -0.000000
10
root 1.249733 32.729170 1.489990 8.395083 3.325320 0.176760
Spine -11.822052 -7.999922 -1.238167
Head 17.713568 -1.267593 -1.406116
LeftShoulder -19.482668 40.766969 21.430363
LeftArm 54.979360 -53.311251 -52.251272
LeftForeArm 4.518350 -0.000000 -2.372851
LeftHand 5.118962 0.000000 5.184971
LeftHandThumb1 -26.253704 0.000000 33.147579
RightShoulder -6.586100 5.076130 -31.792881
RightArm 12.782730 14.048475 40.099539
RightForeArm -10.755418 -0.000000 1.101001
RightHand 4.569735 -0.000000 2.262495
RightHandThumb1 -24.326973 -0.000000 -32.862282
LeftUpLeg -1.249960 -2.610829 -1.122909
LeftLeg -5.373009 -0.000000 0.000000
LeftFoot -6.369911 10.244525 -15.542060
LeftToeBase -1.961257 -0.000000 0.000000
RightUpLeg -1.278818 -2.203036 0.036016
RightLeg -3.973963 -0.000000 0.000000
RightFoot -7.767296 -7.683815 5.998147
RightToeBase 1.495292 -0.000000 -0.000000
11
root 1.247131 32.729395 1.487487 8.382408 3.321866 0.175934
Spine -11.806772 -8.012336 -1.239105
Head 17.688684 -1.288361 -1.388046
LeftShoulder -19.458782 40.712437 21.459079
LeftArm 54.815500 -53.270224 -52.089418
LeftForeArm 4.483618 -0.000000 -2.359933
LeftHand 4.997821 -0.000000 5.422654
LeftHandThumb1 -26.253704 0.000000 33.147579
RightShoulder -6.596504 5.056971 -31.793404
RightArm 12.805341 14.042264 40.089435
RightForeArm -10.753623 -0.000000 1.082032
RightHand 4.584019 0.000000 2.212278
RightHandThumb1 -24.326973 -0.000000 -32.862282
LeftUpLeg -1.239473 -2.610768 -1.118300
LeftLeg -5.376876 -0.000000 0.000000
LeftFoot -6.359727 10.244025 -15.530636
LeftToeBase -2.039074 -0.000000 0.000000
RightUpLeg -1.275625 -2.222472 0.041829
RightLeg -3.964553 -0.000000 0.000000
RightFoot -7.775114 -7.658548 5.993921
RightToeBase 1.517006 -0.000000 -0.000000
12
root 1.243427 32.729770 1.483493 8.380488 3.316586 0.182982
Spine -11.796674 -8.016805 -1.255684
Head 17.653279 -1.325494 -1.353452
LeftShoulder -19.487079 40.737031 21.445183
LeftArm 54.852708 -53.293270 -52.101736
LeftForeArm 4.457201 0.000000 -2.332264
LeftHand 4.977109 -0.000000 5.435226
LeftHandThumb1 -26.253704 0.000000 33.147579
RightShoulder -6.607489 5.059400 -31.787618
RightArm 12.792482 14.040961 40.070060
RightForeArm -10.725658 -0.000000 1.080463
RightHand 4.589875 -0.000000 2.246575
RightHandThumb1 -24.326973 -0.000000 -32.862282
LeftUpLeg -1.251619 -2.593767 -1.120288
LeftLeg -5.363539 -0.000000 0.000000
LeftFoot -6.359725 10.235682 -15.539599
LeftToeBase -1.993572 -0.000000 0.000000
RightUpLeg -1.282397 -2.221350 0.042089
RightLeg -3.965114 -0.000000 0.000000
RightFoot -7.766136 -7.665058 5.969650
RightToeBase 1.523438 -0.000000 -0.000000
